<svg xmlns="http://www.w3.org/2000/svg" viewBox="0 0 512 512" width="100%" height="100%">
  <rect width="512" height="512" rx="128" fill="#ea580c"/>
  <g fill="none" stroke="#ffffff" stroke-width="28" stroke-linecap="round" stroke-linejoin="round">
    <path d="M180 140 C 180 110, 200 110, 200 80" stroke-width="20" opacity="0.9"/>
    <path d="M256 130 C 256 100, 276 100, 276 70" stroke-width="20" opacity="0.9"/>
    <path d="M332 140 C 332 110, 352 110, 352 80" stroke-width="20" opacity="0.9"/>
    <path d="M130 200 L382 200" stroke-width="28"/>
    <path d="M130 240 L80 240 L80 300 L130 300"/>
    <path d="M382 240 L432 240 L432 300 L382 300"/>
    <path d="M130 200 L145 390 C 150 430, 180 440, 256 440 C 332 440, 362 430, 367 390 L382 200"/>
    <path d="M260 260 L230 330 L270 330 L240 400" stroke="#fef08a" stroke-width="24"/>
  </g>
</svg>
